#N canvas 844 64 772 788 10;
#X obj 233 326 spigot;
#X obj 223 208 expr if($f1 > $f2 \, 1 \, 0);
#X obj 222 143 env~ 4096;
#X obj 293 235 pipe 1;
#X obj 233 348 route 1;
#X obj 226 261 expr if($f1 == $f2 \, 0 \, 1) \; if($f1 == $f2 \, 1
\, 0);
#X msg 233 372 1;
#X msg 311 378 0;
#X obj 311 354 route 0;
#X obj 311 330 spigot;
#X obj 252 520 metro 10;
#X obj 256 180 spigot;
#X obj 166 71 inlet~;
#X obj 333 66 inlet;
#X obj 334 161 f \$2;
#X obj 332 137 t b;
#X obj 516 65 inlet;
#X obj 510 91 route 0 1;
#X obj 435 69 inlet;
#X obj 439 411 t b;
#X obj 439 434 f \$3;
#X obj 252 574 outlet;
#X obj 503 113 t b;
#X msg 503 135 0;
#X obj 533 112 t b;
#X msg 533 134 1;
#X obj 493 311 loadbang;
#X obj 382 92 loadbang;
#X msg 253 546 map;
#X connect 0 0 4 0;
#X connect 1 0 3 0;
#X connect 1 0 0 1;
#X connect 1 0 5 0;
#X connect 1 0 9 1;
#X connect 2 0 11 0;
#X connect 3 0 5 1;
#X connect 4 0 6 0;
#X connect 5 0 0 0;
#X connect 5 1 9 0;
#X connect 6 0 10 0;
#X connect 7 0 10 0;
#X connect 8 0 7 0;
#X connect 9 0 8 0;
#X connect 10 0 28 0;
#X connect 11 0 1 0;
#X connect 12 0 2 0;
#X connect 13 0 15 0;
#X connect 13 0 14 1;
#X connect 14 0 1 1;
#X connect 15 0 14 0;
#X connect 16 0 17 0;
#X connect 17 0 22 0;
#X connect 17 1 24 0;
#X connect 18 0 19 0;
#X connect 18 0 20 1;
#X connect 19 0 20 0;
#X connect 20 0 10 1;
#X connect 22 0 23 0;
#X connect 23 0 11 1;
#X connect 24 0 25 0;
#X connect 25 0 11 1;
#X connect 26 0 20 0;
#X connect 27 0 14 0;
#X connect 28 0 21 0;
