#N canvas 597 59 450 449 10;
#X obj 68 21 inlet;
#X obj 205 6 inlet;
#X obj 317 25 inlet;
#X obj 118 121 delay 10;
#X obj 361 59 loadbang;
#X msg 361 81 1000;
#X obj 139 186 expr if($f1 < $f2 \, 1 \, 0);
#X obj 137 162 f;
#X obj 165 162 + 1;
#X obj 115 246 t b;
#X msg 108 324 add \$1;
#X obj 108 348 outlet;
#X obj 139 208 route 1 0;
#X obj 294 270 outlet;
#X obj 289 245 t b;
#X obj 110 296 f \$1;
#X msg 156 143 0;
#X obj 158 272 delay 11;
#X obj 206 93 + 1;
#X obj 179 66 f \$2;
#X obj 140 24 inlet;
#X obj 179 37 t b;
#X obj 242 31 loadbang;
#X msg 242 55 10;
#X obj 286 130 f \$3;
#X obj 298 79 t b;
#X connect 0 0 3 0;
#X connect 1 0 19 1;
#X connect 1 0 21 0;
#X connect 2 0 24 1;
#X connect 2 0 25 0;
#X connect 3 0 7 0;
#X connect 4 0 5 0;
#X connect 4 0 25 0;
#X connect 5 0 24 1;
#X connect 6 0 12 0;
#X connect 7 0 8 0;
#X connect 7 0 6 0;
#X connect 8 0 7 1;
#X connect 9 0 3 0;
#X connect 9 0 15 0;
#X connect 9 0 17 0;
#X connect 10 0 11 0;
#X connect 12 0 9 0;
#X connect 12 1 14 0;
#X connect 14 0 13 0;
#X connect 15 0 10 0;
#X connect 16 0 7 1;
#X connect 17 0 16 0;
#X connect 18 0 17 1;
#X connect 19 0 18 0;
#X connect 19 0 3 1;
#X connect 20 0 15 1;
#X connect 21 0 19 0;
#X connect 22 0 23 0;
#X connect 22 0 21 0;
#X connect 23 0 19 1;
#X connect 24 0 6 1;
#X connect 25 0 24 0;
